<svg width="16" height="16" viewBox="0 0 16 16" fill="none" xmlns="http://www.w3.org/2000/svg">
<g clip-path="url(#clip0_12_398)">
<path d="M15.04 8.16667C15.04 7.64667 14.9933 7.14667 14.9067 6.66667H8V9.50334H11.9467C11.7767 10.42 11.26 11.1967 10.4833 11.7167V13.5567H12.8533C14.24 12.28 15.04 10.4 15.04 8.16667Z" fill="#262626"/>
<path d="M8 15.3333C9.98 15.3333 11.64 14.6767 12.8533 13.5567L10.4833 11.7167C9.82667 12.1567 8.98667 12.4167 8 12.4167C6.09 12.4167 4.47334 11.1267 3.89667 9.39334H1.44667V11.2933C2.65334 13.69 5.13334 15.3333 8 15.3333Z" fill="#262626"/>
<path d="M3.89666 9.39333C3.75 8.95333 3.66666 8.48333 3.66666 8C3.66666 7.51667 3.75 7.04666 3.89666 6.60667V4.70667H1.44666C0.933331 5.72857 0.666212 6.85641 0.666665 8C0.666665 9.18333 0.949998 10.3033 1.44666 11.2933L3.89666 9.39333Z" fill="#262626"/>
<path d="M8 3.58334C9.07667 3.58334 10.0433 3.95334 10.8033 4.68001L12.9067 2.57667C11.6367 1.39334 9.97667 0.666672 8 0.666672C5.13334 0.666672 2.65334 2.31001 1.44667 4.70667L3.89667 6.60667C4.47334 4.87334 6.09 3.58334 8 3.58334Z" fill="#262626"/>
</g>
<defs>
<clipPath id="clip0_12_398">
<rect width="16" height="16" fill="white"/>
</clipPath>
</defs>
</svg>
