<svg width="16" height="16" viewBox="0 0 16 16" fill="none" xmlns="http://www.w3.org/2000/svg">
<g clip-path="url(#clip0_12_396)">
<path d="M7.33334 7.99999C7.33334 8.17681 7.40357 8.34638 7.5286 8.4714C7.65362 8.59642 7.82319 8.66666 8 8.66666C8.17681 8.66666 8.34638 8.59642 8.47141 8.4714C8.59643 8.34638 8.66667 8.17681 8.66667 7.99999C8.66667 7.82318 8.59643 7.65361 8.47141 7.52859C8.34638 7.40357 8.17681 7.33333 8 7.33333C7.82319 7.33333 7.65362 7.40357 7.5286 7.52859C7.40357 7.65361 7.33334 7.82318 7.33334 7.99999Z" stroke="#262626" stroke-linecap="round" stroke-linejoin="round"/>
<path d="M7.33334 12.6667C7.33334 12.8435 7.40357 13.013 7.5286 13.1381C7.65362 13.2631 7.82319 13.3333 8 13.3333C8.17681 13.3333 8.34638 13.2631 8.47141 13.1381C8.59643 13.013 8.66667 12.8435 8.66667 12.6667C8.66667 12.4899 8.59643 12.3203 8.47141 12.1953C8.34638 12.0702 8.17681 12 8 12C7.82319 12 7.65362 12.0702 7.5286 12.1953C7.40357 12.3203 7.33334 12.4899 7.33334 12.6667Z" stroke="#262626" stroke-linecap="round" stroke-linejoin="round"/>
<path d="M7.33334 3.33334C7.33334 3.51015 7.40357 3.67972 7.5286 3.80474C7.65362 3.92977 7.82319 4.00001 8 4.00001C8.17681 4.00001 8.34638 3.92977 8.47141 3.80474C8.59643 3.67972 8.66667 3.51015 8.66667 3.33334C8.66667 3.15653 8.59643 2.98696 8.47141 2.86193C8.34638 2.73691 8.17681 2.66667 8 2.66667C7.82319 2.66667 7.65362 2.73691 7.5286 2.86193C7.40357 2.98696 7.33334 3.15653 7.33334 3.33334Z" stroke="#262626" stroke-linecap="round" stroke-linejoin="round"/>
</g>
<defs>
<clipPath id="clip0_12_396">
<rect width="16" height="16" fill="white"/>
</clipPath>
</defs>
</svg>
