<svg width="16" height="16" viewBox="0 0 16 16" fill="none" xmlns="http://www.w3.org/2000/svg">
<rect width="16" height="16" fill="white"/>
<path d="M2.43182 2.75C2.43182 2.19771 2.87954 1.75 3.43182 1.75H12.7955C13.3477 1.75 13.7955 2.19772 13.7955 2.75V13.1136H2.43182V2.75Z" fill="#FACA50"/>
<rect x="3.56818" y="2.88635" width="9.09091" height="7.5" fill="white"/>
<path d="M12.6591 8.11365V10.3864H6.97726L9.24999 8.11365H12.6591Z" fill="#FACA50"/>
<path d="M1.75 6.15912C1.75 5.60683 2.19772 5.15912 2.75 5.15912H2.88636V7.43185H2.75C2.19772 7.43185 1.75 6.98413 1.75 6.43185V6.15912Z" fill="#FACA50"/>
<path d="M14.4773 6.15912C14.4773 5.60683 14.0295 5.15912 13.4773 5.15912H13.3409V7.43185H13.4773C14.0295 7.43185 14.4773 6.98413 14.4773 6.43185V6.15912Z" fill="#FACA50"/>
<path d="M2.43182 13.1136H4.70455V13.1136C4.70455 13.7412 4.19578 14.25 3.56819 14.25V14.25C2.94059 14.25 2.43182 13.7412 2.43182 13.1136V13.1136Z" fill="#FACA50"/>
<path d="M11.5227 13.1136H13.7955V13.1136C13.7955 13.7412 13.2867 14.25 12.6591 14.25V14.25C12.0315 14.25 11.5227 13.7412 11.5227 13.1136V13.1136Z" fill="#FACA50"/>
<rect x="3.56818" y="11.9773" width="0.681818" height="1.36364" rx="0.340909" transform="rotate(-90 3.56818 11.9773)" fill="white"/>
<rect x="11.2955" y="11.9773" width="0.681818" height="1.36364" rx="0.340909" transform="rotate(-90 11.2955 11.9773)" fill="white"/>
</svg>
