<svg width="64" height="64" viewBox="0 0 64 64" fill="none" xmlns="http://www.w3.org/2000/svg">
<rect width="64" height="64" rx="8" fill="white"/>
<path d="M9.72728 12C9.72728 9.23857 11.9659 7 14.7273 7H50.1818C52.9433 7 55.1818 9.23858 55.1818 12V52.4545H9.72728V12Z" fill="#FACA50"/>
<rect x="14.2727" y="11.5455" width="36.3636" height="30" fill="white"/>
<path d="M50.6364 32.4545V41.5454H27.9091L37 32.4545H50.6364Z" fill="#FACA50"/>
<path d="M7 22.6364C7 21.5318 7.89543 20.6364 9 20.6364H11.5455V29.7273H9C7.89543 29.7273 7 28.8318 7 27.7273V22.6364Z" fill="#FACA50"/>
<path d="M57.9091 22.6364C57.9091 21.5318 57.0137 20.6364 55.9091 20.6364H53.3636V29.7273H55.9091C57.0137 29.7273 57.9091 28.8318 57.9091 27.7273V22.6364Z" fill="#FACA50"/>
<path d="M9.72728 52.4545H18.8182V54C18.8182 55.6568 17.475 57 15.8182 57H12.7273C11.0704 57 9.72728 55.6568 9.72728 54V52.4545Z" fill="#FACA50"/>
<path d="M46.0909 52.4545H55.1818V54C55.1818 55.6568 53.8387 57 52.1818 57H49.0909C47.4341 57 46.0909 55.6568 46.0909 54V52.4545Z" fill="#FACA50"/>
<rect x="14.2727" y="47.9091" width="2.72727" height="5.45455" rx="1.36364" transform="rotate(-90 14.2727 47.9091)" fill="white"/>
<rect x="45.1818" y="47.9091" width="2.72727" height="5.45455" rx="1.36364" transform="rotate(-90 45.1818 47.9091)" fill="white"/>
</svg>
