<svg width="349" height="64" viewBox="0 0 349 64" fill="none" xmlns="http://www.w3.org/2000/svg">
<rect width="349" height="64" fill="white"/>
<path d="M12.7273 12C12.7273 9.23857 14.9658 7 17.7273 7H53.1818C55.9432 7 58.1818 9.23858 58.1818 12V52.4545H12.7273V12Z" fill="#FACA50"/>
<rect x="17.2727" y="11.5455" width="36.3636" height="30" fill="white"/>
<path d="M53.6364 32.4545V41.5454H30.9091L40 32.4545H53.6364Z" fill="#FACA50"/>
<path d="M10 22.6364C10 21.5318 10.8954 20.6364 12 20.6364H14.5455V29.7273H12C10.8954 29.7273 10 28.8318 10 27.7273V22.6364Z" fill="#FACA50"/>
<path d="M60.9091 22.6364C60.9091 21.5318 60.0137 20.6364 58.9091 20.6364H56.3636V29.7273H58.9091C60.0137 29.7273 60.9091 28.8318 60.9091 27.7273V22.6364Z" fill="#FACA50"/>
<path d="M12.7273 52.4545H21.8182V54C21.8182 55.6568 20.475 57 18.8182 57H15.7273C14.0704 57 12.7273 55.6568 12.7273 54V52.4545Z" fill="#FACA50"/>
<path d="M49.0909 52.4545H58.1818V54C58.1818 55.6568 56.8387 57 55.1818 57H52.0909C50.4341 57 49.0909 55.6568 49.0909 54V52.4545Z" fill="#FACA50"/>
<rect x="17.2727" y="47.9091" width="2.72727" height="5.45455" rx="1.36364" transform="rotate(-90 17.2727 47.9091)" fill="white"/>
<rect x="48.1818" y="47.9091" width="2.72727" height="5.45455" rx="1.36364" transform="rotate(-90 48.1818 47.9091)" fill="white"/>
<path d="M89.96 24.88C89.96 25.3867 89.7733 25.8267 89.4 26.2C89.0533 26.5467 88.64 26.72 88.16 26.72H77.84C77.52 26.72 77.36 26.8933 77.36 27.24V32.56C77.36 32.9333 77.52 33.12 77.84 33.12H86.72C87.2533 33.12 87.6933 33.2933 88.04 33.64C88.3867 33.9867 88.56 34.4133 88.56 34.92V36.04C88.56 36.5467 88.3867 36.9867 88.04 37.36C87.6933 37.7067 87.2533 37.88 86.72 37.88H77.84C77.52 37.88 77.36 38.04 77.36 38.36V47.16C77.36 47.6667 77.1733 48.1067 76.8 48.48C76.4533 48.8267 76.0267 49 75.52 49H74.4C73.92 49 73.4933 48.8267 73.12 48.48C72.7733 48.1067 72.6 47.6667 72.6 47.16V23.8C72.6 23.2667 72.7733 22.8267 73.12 22.48C73.4933 22.1333 73.92 21.96 74.4 21.96H88.16C88.64 21.96 89.0533 22.1333 89.4 22.48C89.7733 22.8267 89.96 23.2667 89.96 23.8V24.88ZM107.627 44.52C107.627 45.7733 107.187 46.84 106.307 47.72C105.454 48.5733 104.414 49 103.187 49H97.6269C96.4002 49 95.3469 48.5733 94.4669 47.72C93.5869 46.84 93.1469 45.7733 93.1469 44.52V40.16C93.1469 39.3333 93.3469 38.6 93.7469 37.96C94.1735 37.2933 94.7202 36.76 95.3869 36.36C96.0535 35.96 96.8002 35.76 97.6269 35.76H102.347C102.48 35.76 102.6 35.7067 102.707 35.6C102.84 35.4933 102.907 35.36 102.907 35.2V33.6C102.907 33.44 102.84 33.3067 102.707 33.2C102.6 33.0933 102.48 33.04 102.347 33.04H97.6269C97.1202 33.04 96.6802 32.8667 96.3069 32.52C95.9602 32.1733 95.7869 31.7467 95.7869 31.24V30.16C95.7869 29.6267 95.9602 29.1867 96.3069 28.84C96.6802 28.4667 97.1202 28.28 97.6269 28.28H103.187C104.014 28.28 104.76 28.48 105.427 28.88C106.094 29.28 106.627 29.8267 107.027 30.52C107.427 31.1867 107.627 31.9333 107.627 32.76V44.52ZM102.907 43.76V41C102.907 40.8667 102.84 40.7467 102.707 40.64C102.6 40.5333 102.48 40.48 102.347 40.48H98.4669C98.3335 40.48 98.2002 40.5333 98.0669 40.64C97.9602 40.7467 97.9069 40.8667 97.9069 41V43.76C97.9069 43.8933 97.9602 44.0133 98.0669 44.12C98.2002 44.2267 98.3335 44.28 98.4669 44.28H102.347C102.48 44.28 102.6 44.2267 102.707 44.12C102.84 44.0133 102.907 43.8933 102.907 43.76ZM122.761 31.24C122.761 31.7467 122.588 32.1733 122.241 32.52C121.895 32.8667 121.468 33.04 120.961 33.04H116.201C115.855 33.04 115.681 33.2267 115.681 33.6V47.16C115.681 47.6667 115.495 48.1067 115.121 48.48C114.775 48.8267 114.348 49 113.841 49H112.721C112.215 49 111.788 48.8267 111.441 48.48C111.095 48.1067 110.921 47.6667 110.921 47.16V32.76C110.921 31.9333 111.121 31.1867 111.521 30.52C111.921 29.8267 112.455 29.28 113.121 28.88C113.788 28.48 114.535 28.28 115.361 28.28H120.961C121.468 28.28 121.895 28.4667 122.241 28.84C122.588 29.1867 122.761 29.6267 122.761 30.16V31.24ZM140.478 37.12C140.478 37.92 140.278 38.6667 139.878 39.36C139.478 40.0267 138.945 40.5733 138.278 41C137.612 41.4 136.865 41.6 136.038 41.6H131.318C131.185 41.6 131.052 41.6533 130.918 41.76C130.812 41.84 130.758 41.9467 130.758 42.08V43.76C130.758 43.8933 130.812 44.0133 130.918 44.12C131.052 44.2267 131.185 44.28 131.318 44.28H136.038C136.545 44.28 136.972 44.4533 137.318 44.8C137.692 45.1467 137.878 45.5867 137.878 46.12V47.16C137.878 47.6667 137.692 48.1067 137.318 48.48C136.972 48.8267 136.545 49 136.038 49H130.478C129.252 49 128.198 48.5733 127.318 47.72C126.438 46.84 125.998 45.7733 125.998 44.52V32.76C125.998 31.9333 126.198 31.1867 126.598 30.52C127.025 29.8533 127.572 29.32 128.238 28.92C128.905 28.4933 129.652 28.28 130.478 28.28H136.038C136.865 28.28 137.612 28.4933 138.278 28.92C138.945 29.32 139.478 29.8533 139.878 30.52C140.278 31.1867 140.478 31.9333 140.478 32.76V37.12ZM135.758 36.32V33.6C135.758 33.44 135.692 33.3067 135.558 33.2C135.452 33.0933 135.332 33.04 135.198 33.04H131.318C131.185 33.04 131.052 33.0933 130.918 33.2C130.812 33.3067 130.758 33.44 130.758 33.6V36.32C130.758 36.4267 130.812 36.5333 130.918 36.64C131.052 36.7467 131.185 36.8 131.318 36.8H135.198C135.332 36.8 135.452 36.7467 135.558 36.64C135.692 36.5333 135.758 36.4267 135.758 36.32ZM161.573 33.12C161.573 34.08 161.333 34.96 160.853 35.76C160.399 36.56 159.773 37.2 158.973 37.68C158.173 38.16 157.279 38.4 156.293 38.4H148.933C148.613 38.4 148.453 38.5733 148.453 38.92V47.16C148.453 47.6667 148.266 48.1067 147.893 48.48C147.546 48.8267 147.119 49 146.613 49H145.533C145.026 49 144.586 48.8267 144.213 48.48C143.866 48.1067 143.693 47.6667 143.693 47.16V23.8C143.693 23.2667 143.866 22.8267 144.213 22.48C144.586 22.1333 145.026 21.96 145.533 21.96H156.293C157.279 21.96 158.173 22.2 158.973 22.68C159.773 23.16 160.399 23.8 160.853 24.6C161.333 25.4 161.573 26.2933 161.573 27.28V33.12ZM156.853 33.12V27.28C156.853 26.9067 156.666 26.72 156.293 26.72H148.933C148.613 26.72 148.453 26.8933 148.453 27.24V33.12C148.453 33.4667 148.613 33.64 148.933 33.64H156.293C156.666 33.64 156.853 33.4667 156.853 33.12ZM179.268 44.52C179.268 45.7733 178.828 46.84 177.948 47.72C177.094 48.5733 176.054 49 174.828 49H169.268C168.041 49 166.988 48.5733 166.108 47.72C165.228 46.84 164.788 45.7733 164.788 44.52V40.16C164.788 39.3333 164.988 38.6 165.388 37.96C165.814 37.2933 166.361 36.76 167.028 36.36C167.694 35.96 168.441 35.76 169.268 35.76H173.988C174.121 35.76 174.241 35.7067 174.348 35.6C174.481 35.4933 174.548 35.36 174.548 35.2V33.6C174.548 33.44 174.481 33.3067 174.348 33.2C174.241 33.0933 174.121 33.04 173.988 33.04H169.268C168.761 33.04 168.321 32.8667 167.948 32.52C167.601 32.1733 167.428 31.7467 167.428 31.24V30.16C167.428 29.6267 167.601 29.1867 167.948 28.84C168.321 28.4667 168.761 28.28 169.268 28.28H174.828C175.654 28.28 176.401 28.48 177.068 28.88C177.734 29.28 178.268 29.8267 178.668 30.52C179.068 31.1867 179.268 31.9333 179.268 32.76V44.52ZM174.548 43.76V41C174.548 40.8667 174.481 40.7467 174.348 40.64C174.241 40.5333 174.121 40.48 173.988 40.48H170.108C169.974 40.48 169.841 40.5333 169.708 40.64C169.601 40.7467 169.548 40.8667 169.548 41V43.76C169.548 43.8933 169.601 44.0133 169.708 44.12C169.841 44.2267 169.974 44.28 170.108 44.28H173.988C174.121 44.28 174.241 44.2267 174.348 44.12C174.481 44.0133 174.548 43.8933 174.548 43.76ZM197.002 44.52C197.002 45.7733 196.562 46.84 195.682 47.72C194.829 48.5733 193.789 49 192.562 49H187.002C185.775 49 184.722 48.5733 183.842 47.72C182.962 46.84 182.522 45.7733 182.522 44.52V42.88C182.522 42.3733 182.695 41.9467 183.042 41.6C183.415 41.2267 183.855 41.04 184.362 41.04H185.482C185.989 41.04 186.415 41.2267 186.762 41.6C187.109 41.9467 187.282 42.3733 187.282 42.88V43.76C187.282 44.1067 187.469 44.28 187.842 44.28H191.722C191.855 44.28 191.975 44.2267 192.082 44.12C192.215 44.0133 192.282 43.8933 192.282 43.76V42.28C192.282 42.0667 192.175 41.92 191.962 41.84L186.162 40C185.095 39.6267 184.215 38.9867 183.522 38.08C182.855 37.1733 182.522 36.1467 182.522 35V32.76C182.522 31.9333 182.722 31.1867 183.122 30.52C183.549 29.8533 184.095 29.32 184.762 28.92C185.429 28.4933 186.175 28.28 187.002 28.28H192.562C193.389 28.28 194.135 28.4933 194.802 28.92C195.469 29.32 196.002 29.8533 196.402 30.52C196.802 31.1867 197.002 31.9333 197.002 32.76V34.36C197.002 34.8667 196.829 35.3067 196.482 35.68C196.135 36.0267 195.709 36.2 195.202 36.2H194.082C193.575 36.2 193.149 36.0267 192.802 35.68C192.455 35.3067 192.282 34.8667 192.282 34.36V33.6C192.282 33.44 192.215 33.3067 192.082 33.2C191.975 33.0933 191.855 33.04 191.722 33.04H187.842C187.469 33.04 187.282 33.2267 187.282 33.6V35C187.282 35.2667 187.389 35.4267 187.602 35.48L193.402 37.32C194.495 37.6667 195.362 38.2933 196.002 39.2C196.669 40.1067 197.002 41.1333 197.002 42.28V44.52ZM214.736 44.52C214.736 45.7733 214.296 46.84 213.416 47.72C212.563 48.5733 211.523 49 210.296 49H204.736C203.51 49 202.456 48.5733 201.576 47.72C200.696 46.84 200.256 45.7733 200.256 44.52V42.88C200.256 42.3733 200.43 41.9467 200.776 41.6C201.15 41.2267 201.59 41.04 202.096 41.04H203.216C203.723 41.04 204.15 41.2267 204.496 41.6C204.843 41.9467 205.016 42.3733 205.016 42.88V43.76C205.016 44.1067 205.203 44.28 205.576 44.28H209.456C209.59 44.28 209.71 44.2267 209.816 44.12C209.95 44.0133 210.016 43.8933 210.016 43.76V42.28C210.016 42.0667 209.91 41.92 209.696 41.84L203.896 40C202.83 39.6267 201.95 38.9867 201.256 38.08C200.59 37.1733 200.256 36.1467 200.256 35V32.76C200.256 31.9333 200.456 31.1867 200.856 30.52C201.283 29.8533 201.83 29.32 202.496 28.92C203.163 28.4933 203.91 28.28 204.736 28.28H210.296C211.123 28.28 211.87 28.4933 212.536 28.92C213.203 29.32 213.736 29.8533 214.136 30.52C214.536 31.1867 214.736 31.9333 214.736 32.76V34.36C214.736 34.8667 214.563 35.3067 214.216 35.68C213.87 36.0267 213.443 36.2 212.936 36.2H211.816C211.31 36.2 210.883 36.0267 210.536 35.68C210.19 35.3067 210.016 34.8667 210.016 34.36V33.6C210.016 33.44 209.95 33.3067 209.816 33.2C209.71 33.0933 209.59 33.04 209.456 33.04H205.576C205.203 33.04 205.016 33.2267 205.016 33.6V35C205.016 35.2667 205.123 35.4267 205.336 35.48L211.136 37.32C212.23 37.6667 213.096 38.2933 213.736 39.2C214.403 40.1067 214.736 41.1333 214.736 42.28V44.52ZM232.471 44.52C232.471 45.7733 232.031 46.84 231.151 47.72C230.297 48.5733 229.257 49 228.031 49H222.471C221.244 49 220.191 48.5733 219.311 47.72C218.431 46.84 217.991 45.7733 217.991 44.52V40.16C217.991 39.3333 218.191 38.6 218.591 37.96C219.017 37.2933 219.564 36.76 220.231 36.36C220.897 35.96 221.644 35.76 222.471 35.76H227.191C227.324 35.76 227.444 35.7067 227.551 35.6C227.684 35.4933 227.751 35.36 227.751 35.2V33.6C227.751 33.44 227.684 33.3067 227.551 33.2C227.444 33.0933 227.324 33.04 227.191 33.04H222.471C221.964 33.04 221.524 32.8667 221.151 32.52C220.804 32.1733 220.631 31.7467 220.631 31.24V30.16C220.631 29.6267 220.804 29.1867 221.151 28.84C221.524 28.4667 221.964 28.28 222.471 28.28H228.031C228.857 28.28 229.604 28.48 230.271 28.88C230.937 29.28 231.471 29.8267 231.871 30.52C232.271 31.1867 232.471 31.9333 232.471 32.76V44.52ZM227.751 43.76V41C227.751 40.8667 227.684 40.7467 227.551 40.64C227.444 40.5333 227.324 40.48 227.191 40.48H223.311C223.177 40.48 223.044 40.5333 222.911 40.64C222.804 40.7467 222.751 40.8667 222.751 41V43.76C222.751 43.8933 222.804 44.0133 222.911 44.12C223.044 44.2267 223.177 44.28 223.311 44.28H227.191C227.324 44.28 227.444 44.2267 227.551 44.12C227.684 44.0133 227.751 43.8933 227.751 43.76ZM250.205 50.92C250.205 51.72 250.005 52.4533 249.605 53.12C249.205 53.8133 248.672 54.36 248.005 54.76C247.338 55.1867 246.592 55.4 245.765 55.4H240.205C239.698 55.4 239.258 55.2133 238.885 54.84C238.538 54.4933 238.365 54.0667 238.365 53.56V52.44C238.365 51.9333 238.538 51.5067 238.885 51.16C239.258 50.8133 239.698 50.64 240.205 50.64H244.925C245.058 50.64 245.178 50.5867 245.285 50.48C245.418 50.3733 245.485 50.2533 245.485 50.12V49.52C245.485 49.3867 245.418 49.2667 245.285 49.16C245.178 49.0533 245.058 49 244.925 49H240.205C238.978 49 237.925 48.5733 237.045 47.72C236.165 46.84 235.725 45.7733 235.725 44.52V32.76C235.725 31.9333 235.925 31.1867 236.325 30.52C236.752 29.8267 237.298 29.28 237.965 28.88C238.632 28.48 239.378 28.28 240.205 28.28H245.765C246.592 28.28 247.338 28.48 248.005 28.88C248.672 29.28 249.205 29.8267 249.605 30.52C250.005 31.1867 250.205 31.9333 250.205 32.76V50.92ZM245.485 43.76V33.6C245.485 33.44 245.418 33.3067 245.285 33.2C245.178 33.0933 245.058 33.04 244.925 33.04H241.045C240.912 33.04 240.778 33.0933 240.645 33.2C240.538 33.3067 240.485 33.44 240.485 33.6V43.76C240.485 43.8933 240.538 44.0133 240.645 44.12C240.778 44.2267 240.912 44.28 241.045 44.28H244.925C245.058 44.28 245.178 44.2267 245.285 44.12C245.418 44.0133 245.485 43.8933 245.485 43.76ZM267.939 37.12C267.939 37.92 267.739 38.6667 267.339 39.36C266.939 40.0267 266.406 40.5733 265.739 41C265.073 41.4 264.326 41.6 263.499 41.6H258.779C258.646 41.6 258.513 41.6533 258.379 41.76C258.273 41.84 258.219 41.9467 258.219 42.08V43.76C258.219 43.8933 258.273 44.0133 258.379 44.12C258.513 44.2267 258.646 44.28 258.779 44.28H263.499C264.006 44.28 264.433 44.4533 264.779 44.8C265.153 45.1467 265.339 45.5867 265.339 46.12V47.16C265.339 47.6667 265.153 48.1067 264.779 48.48C264.433 48.8267 264.006 49 263.499 49H257.939C256.713 49 255.659 48.5733 254.779 47.72C253.899 46.84 253.459 45.7733 253.459 44.52V32.76C253.459 31.9333 253.659 31.1867 254.059 30.52C254.486 29.8533 255.033 29.32 255.699 28.92C256.366 28.4933 257.113 28.28 257.939 28.28H263.499C264.326 28.28 265.073 28.4933 265.739 28.92C266.406 29.32 266.939 29.8533 267.339 30.52C267.739 31.1867 267.939 31.9333 267.939 32.76V37.12ZM263.219 36.32V33.6C263.219 33.44 263.153 33.3067 263.019 33.2C262.913 33.0933 262.793 33.04 262.659 33.04H258.779C258.646 33.04 258.513 33.0933 258.379 33.2C258.273 33.3067 258.219 33.44 258.219 33.6V36.32C258.219 36.4267 258.273 36.5333 258.379 36.64C258.513 36.7467 258.646 36.8 258.779 36.8H262.659C262.793 36.8 262.913 36.7467 263.019 36.64C263.153 36.5333 263.219 36.4267 263.219 36.32ZM301.093 46.6C301.253 47.2133 301.159 47.7733 300.813 48.28C300.466 48.76 299.973 49 299.333 49H298.173C297.799 49 297.439 48.88 297.093 48.64C296.773 48.4 296.546 48.1067 296.413 47.76L294.893 43.16C294.786 42.8133 294.559 42.64 294.213 42.64H287.373C287.026 42.64 286.799 42.8133 286.693 43.16L285.173 47.76C285.039 48.1067 284.813 48.4 284.493 48.64C284.173 48.88 283.813 49 283.413 49H282.253C281.613 49 281.119 48.76 280.773 48.28C280.399 47.7467 280.319 47.1867 280.533 46.6L288.293 23.2C288.426 22.8267 288.639 22.5333 288.933 22.32C289.253 22.08 289.599 21.96 289.973 21.96H291.613C291.986 21.96 292.333 22.08 292.653 22.32C292.973 22.5333 293.186 22.8267 293.293 23.2L301.093 46.6ZM293.013 37.4L291.013 31.28C290.879 31.0933 290.733 31.0933 290.572 31.28L288.573 37.4C288.519 37.5333 288.533 37.6533 288.613 37.76C288.693 37.8667 288.799 37.92 288.933 37.92H292.653C292.786 37.92 292.893 37.8667 292.973 37.76C293.053 37.6533 293.066 37.5333 293.013 37.4ZM318.838 44.52C318.838 45.7733 318.398 46.84 317.518 47.72C316.664 48.5733 315.624 49 314.398 49H309.678C309.544 49 309.411 49.0533 309.278 49.16C309.171 49.2667 309.118 49.3867 309.118 49.52V53.56C309.118 54.0667 308.944 54.4933 308.598 54.84C308.251 55.2133 307.824 55.4 307.318 55.4H306.198C305.691 55.4 305.251 55.2133 304.878 54.84C304.531 54.4933 304.358 54.0667 304.358 53.56V32.76C304.358 31.9333 304.558 31.1867 304.958 30.52C305.384 29.8267 305.931 29.28 306.598 28.88C307.264 28.48 308.011 28.28 308.838 28.28H314.398C315.224 28.28 315.971 28.48 316.638 28.88C317.304 29.28 317.838 29.8267 318.238 30.52C318.638 31.1867 318.838 31.9333 318.838 32.76V44.52ZM314.118 43.76V33.6C314.118 33.44 314.051 33.3067 313.918 33.2C313.811 33.0933 313.691 33.04 313.558 33.04H309.678C309.544 33.04 309.411 33.0933 309.278 33.2C309.171 33.3067 309.118 33.44 309.118 33.6V43.76C309.118 43.8933 309.171 44.0133 309.278 44.12C309.411 44.2267 309.544 44.28 309.678 44.28H313.558C313.691 44.28 313.811 44.2267 313.918 44.12C314.051 44.0133 314.118 43.8933 314.118 43.76ZM336.572 44.52C336.572 45.7733 336.132 46.84 335.252 47.72C334.399 48.5733 333.359 49 332.132 49H327.412C327.279 49 327.146 49.0533 327.012 49.16C326.906 49.2667 326.852 49.3867 326.852 49.52V53.56C326.852 54.0667 326.679 54.4933 326.332 54.84C325.986 55.2133 325.559 55.4 325.052 55.4H323.932C323.426 55.4 322.986 55.2133 322.612 54.84C322.266 54.4933 322.092 54.0667 322.092 53.56V32.76C322.092 31.9333 322.292 31.1867 322.692 30.52C323.119 29.8267 323.666 29.28 324.332 28.88C324.999 28.48 325.746 28.28 326.572 28.28H332.132C332.959 28.28 333.706 28.48 334.372 28.88C335.039 29.28 335.572 29.8267 335.972 30.52C336.372 31.1867 336.572 31.9333 336.572 32.76V44.52ZM331.852 43.76V33.6C331.852 33.44 331.786 33.3067 331.652 33.2C331.546 33.0933 331.426 33.04 331.292 33.04H327.412C327.279 33.04 327.146 33.0933 327.012 33.2C326.906 33.3067 326.852 33.44 326.852 33.6V43.76C326.852 43.8933 326.906 44.0133 327.012 44.12C327.146 44.2267 327.279 44.28 327.412 44.28H331.292C331.426 44.28 331.546 44.2267 331.652 44.12C331.786 44.0133 331.852 43.8933 331.852 43.76Z" fill="#171717"/>
</svg>
