<svg width="181" height="105" viewBox="0 0 181 105" fill="none" xmlns="http://www.w3.org/2000/svg">
<rect width="181" height="105" fill="white"/>
<path d="M67.7273 15C67.7273 12.2386 69.9658 10 72.7273 10H108.182C110.943 10 113.182 12.2386 113.182 15V55.4545H67.7273V15Z" fill="#FACA50"/>
<rect x="72.2727" y="14.5455" width="36.3636" height="30" fill="white"/>
<path d="M108.636 35.4545V44.5454H85.9091L95 35.4545H108.636Z" fill="#FACA50"/>
<path d="M65 25.6364C65 24.5318 65.8954 23.6364 67 23.6364H69.5455V32.7273H67C65.8954 32.7273 65 31.8318 65 30.7273V25.6364Z" fill="#FACA50"/>
<path d="M115.909 25.6364C115.909 24.5318 115.014 23.6364 113.909 23.6364H111.364V32.7273H113.909C115.014 32.7273 115.909 31.8318 115.909 30.7273V25.6364Z" fill="#FACA50"/>
<path d="M67.7273 55.4545H76.8182V57C76.8182 58.6568 75.475 60 73.8182 60H70.7273C69.0704 60 67.7273 58.6568 67.7273 57V55.4545Z" fill="#FACA50"/>
<path d="M104.091 55.4545H113.182V57C113.182 58.6568 111.839 60 110.182 60H107.091C105.434 60 104.091 58.6568 104.091 57V55.4545Z" fill="#FACA50"/>
<rect x="72.2727" y="50.9091" width="2.72727" height="5.45455" rx="1.36364" transform="rotate(-90 72.2727 50.9091)" fill="white"/>
<rect x="103.182" y="50.9091" width="2.72727" height="5.45455" rx="1.36364" transform="rotate(-90 103.182 50.9091)" fill="white"/>
<path d="M21.376 73.528C21.376 73.832 21.264 74.096 21.04 74.32C20.832 74.528 20.584 74.632 20.296 74.632H14.104C13.912 74.632 13.816 74.736 13.816 74.944V78.136C13.816 78.36 13.912 78.472 14.104 78.472H19.432C19.752 78.472 20.016 78.576 20.224 78.784C20.432 78.992 20.536 79.248 20.536 79.552V80.224C20.536 80.528 20.432 80.792 20.224 81.016C20.016 81.224 19.752 81.328 19.432 81.328H14.104C13.912 81.328 13.816 81.424 13.816 81.616V86.896C13.816 87.2 13.704 87.464 13.48 87.688C13.272 87.896 13.016 88 12.712 88H12.04C11.752 88 11.496 87.896 11.272 87.688C11.064 87.464 10.96 87.2 10.96 86.896V72.88C10.96 72.56 11.064 72.296 11.272 72.088C11.496 71.88 11.752 71.776 12.04 71.776H20.296C20.584 71.776 20.832 71.88 21.04 72.088C21.264 72.296 21.376 72.56 21.376 72.88V73.528ZM31.9761 85.312C31.9761 86.064 31.7121 86.704 31.1841 87.232C30.6721 87.744 30.0481 88 29.3121 88H25.9761C25.2401 88 24.6081 87.744 24.0801 87.232C23.5521 86.704 23.2881 86.064 23.2881 85.312V82.696C23.2881 82.2 23.4081 81.76 23.6481 81.376C23.9041 80.976 24.2321 80.656 24.6321 80.416C25.0321 80.176 25.4801 80.056 25.9761 80.056H28.8081C28.8881 80.056 28.9601 80.024 29.0241 79.96C29.1041 79.896 29.1441 79.816 29.1441 79.72V78.76C29.1441 78.664 29.1041 78.584 29.0241 78.52C28.9601 78.456 28.8881 78.424 28.8081 78.424H25.9761C25.6721 78.424 25.4081 78.32 25.1841 78.112C24.9761 77.904 24.8721 77.648 24.8721 77.344V76.696C24.8721 76.376 24.9761 76.112 25.1841 75.904C25.4081 75.68 25.6721 75.568 25.9761 75.568H29.3121C29.8081 75.568 30.2561 75.688 30.6561 75.928C31.0561 76.168 31.3761 76.496 31.6161 76.912C31.8561 77.312 31.9761 77.76 31.9761 78.256V85.312ZM29.1441 84.856V83.2C29.1441 83.12 29.1041 83.048 29.0241 82.984C28.9601 82.92 28.8881 82.888 28.8081 82.888H26.4801C26.4001 82.888 26.3201 82.92 26.2401 82.984C26.1761 83.048 26.1441 83.12 26.1441 83.2V84.856C26.1441 84.936 26.1761 85.008 26.2401 85.072C26.3201 85.136 26.4001 85.168 26.4801 85.168H28.8081C28.8881 85.168 28.9601 85.136 29.0241 85.072C29.1041 85.008 29.1441 84.936 29.1441 84.856ZM41.0568 77.344C41.0568 77.648 40.9528 77.904 40.7448 78.112C40.5368 78.32 40.2808 78.424 39.9768 78.424H37.1208C36.9128 78.424 36.8088 78.536 36.8088 78.76V86.896C36.8088 87.2 36.6968 87.464 36.4728 87.688C36.2648 87.896 36.0088 88 35.7048 88H35.0328C34.7288 88 34.4728 87.896 34.2648 87.688C34.0568 87.464 33.9528 87.2 33.9528 86.896V78.256C33.9528 77.76 34.0728 77.312 34.3128 76.912C34.5528 76.496 34.8728 76.168 35.2728 75.928C35.6728 75.688 36.1208 75.568 36.6168 75.568H39.9768C40.2808 75.568 40.5368 75.68 40.7448 75.904C40.9528 76.112 41.0568 76.376 41.0568 76.696V77.344ZM51.6871 80.872C51.6871 81.352 51.5671 81.8 51.3271 82.216C51.0871 82.616 50.7671 82.944 50.3671 83.2C49.9671 83.44 49.5191 83.56 49.0231 83.56H46.1911C46.1111 83.56 46.0311 83.592 45.9511 83.656C45.8871 83.704 45.8551 83.768 45.8551 83.848V84.856C45.8551 84.936 45.8871 85.008 45.9511 85.072C46.0311 85.136 46.1111 85.168 46.1911 85.168H49.0231C49.3271 85.168 49.5831 85.272 49.7911 85.48C50.0151 85.688 50.1271 85.952 50.1271 86.272V86.896C50.1271 87.2 50.0151 87.464 49.7911 87.688C49.5831 87.896 49.3271 88 49.0231 88H45.6871C44.9511 88 44.3191 87.744 43.7911 87.232C43.2631 86.704 42.9991 86.064 42.9991 85.312V78.256C42.9991 77.76 43.1191 77.312 43.3591 76.912C43.6151 76.512 43.9431 76.192 44.3431 75.952C44.7431 75.696 45.1911 75.568 45.6871 75.568H49.0231C49.5191 75.568 49.9671 75.696 50.3671 75.952C50.7671 76.192 51.0871 76.512 51.3271 76.912C51.5671 77.312 51.6871 77.76 51.6871 78.256V80.872ZM48.8551 80.392V78.76C48.8551 78.664 48.8151 78.584 48.7351 78.52C48.6711 78.456 48.5991 78.424 48.5191 78.424H46.1911C46.1111 78.424 46.0311 78.456 45.9511 78.52C45.8871 78.584 45.8551 78.664 45.8551 78.76V80.392C45.8551 80.456 45.8871 80.52 45.9511 80.584C46.0311 80.648 46.1111 80.68 46.1911 80.68H48.5191C48.5991 80.68 48.6711 80.648 48.7351 80.584C48.8151 80.52 48.8551 80.456 48.8551 80.392ZM64.3437 78.472C64.3437 79.048 64.1997 79.576 63.9117 80.056C63.6397 80.536 63.2637 80.92 62.7837 81.208C62.3037 81.496 61.7677 81.64 61.1757 81.64H56.7597C56.5677 81.64 56.4717 81.744 56.4717 81.952V86.896C56.4717 87.2 56.3597 87.464 56.1357 87.688C55.9277 87.896 55.6717 88 55.3677 88H54.7197C54.4157 88 54.1517 87.896 53.9277 87.688C53.7197 87.464 53.6157 87.2 53.6157 86.896V72.88C53.6157 72.56 53.7197 72.296 53.9277 72.088C54.1517 71.88 54.4157 71.776 54.7197 71.776H61.1757C61.7677 71.776 62.3037 71.92 62.7837 72.208C63.2637 72.496 63.6397 72.88 63.9117 73.36C64.1997 73.84 64.3437 74.376 64.3437 74.968V78.472ZM61.5117 78.472V74.968C61.5117 74.744 61.3997 74.632 61.1757 74.632H56.7597C56.5677 74.632 56.4717 74.736 56.4717 74.944V78.472C56.4717 78.68 56.5677 78.784 56.7597 78.784H61.1757C61.3997 78.784 61.5117 78.68 61.5117 78.472ZM74.9605 85.312C74.9605 86.064 74.6965 86.704 74.1685 87.232C73.6565 87.744 73.0325 88 72.2965 88H68.9605C68.2245 88 67.5925 87.744 67.0645 87.232C66.5365 86.704 66.2725 86.064 66.2725 85.312V82.696C66.2725 82.2 66.3925 81.76 66.6325 81.376C66.8885 80.976 67.2165 80.656 67.6165 80.416C68.0165 80.176 68.4645 80.056 68.9605 80.056H71.7925C71.8725 80.056 71.9445 80.024 72.0085 79.96C72.0885 79.896 72.1285 79.816 72.1285 79.72V78.76C72.1285 78.664 72.0885 78.584 72.0085 78.52C71.9445 78.456 71.8725 78.424 71.7925 78.424H68.9605C68.6565 78.424 68.3925 78.32 68.1685 78.112C67.9605 77.904 67.8565 77.648 67.8565 77.344V76.696C67.8565 76.376 67.9605 76.112 68.1685 75.904C68.3925 75.68 68.6565 75.568 68.9605 75.568H72.2965C72.7925 75.568 73.2405 75.688 73.6405 75.928C74.0405 76.168 74.3605 76.496 74.6005 76.912C74.8405 77.312 74.9605 77.76 74.9605 78.256V85.312ZM72.1285 84.856V83.2C72.1285 83.12 72.0885 83.048 72.0085 82.984C71.9445 82.92 71.8725 82.888 71.7925 82.888H69.4645C69.3845 82.888 69.3045 82.92 69.2245 82.984C69.1605 83.048 69.1285 83.12 69.1285 83.2V84.856C69.1285 84.936 69.1605 85.008 69.2245 85.072C69.3045 85.136 69.3845 85.168 69.4645 85.168H71.7925C71.8725 85.168 71.9445 85.136 72.0085 85.072C72.0885 85.008 72.1285 84.936 72.1285 84.856ZM85.6011 85.312C85.6011 86.064 85.3371 86.704 84.8091 87.232C84.2971 87.744 83.6731 88 82.9371 88H79.6011C78.8651 88 78.2331 87.744 77.7051 87.232C77.1771 86.704 76.9131 86.064 76.9131 85.312V84.328C76.9131 84.024 77.0171 83.768 77.2251 83.56C77.4491 83.336 77.7131 83.224 78.0171 83.224H78.6891C78.9931 83.224 79.2491 83.336 79.4571 83.56C79.6651 83.768 79.7691 84.024 79.7691 84.328V84.856C79.7691 85.064 79.8811 85.168 80.1051 85.168H82.4331C82.5131 85.168 82.5851 85.136 82.6491 85.072C82.7291 85.008 82.7691 84.936 82.7691 84.856V83.968C82.7691 83.84 82.7051 83.752 82.5771 83.704L79.0971 82.6C78.4571 82.376 77.9291 81.992 77.5131 81.448C77.1131 80.904 76.9131 80.288 76.9131 79.6V78.256C76.9131 77.76 77.0331 77.312 77.2731 76.912C77.5291 76.512 77.8571 76.192 78.2571 75.952C78.6571 75.696 79.1051 75.568 79.6011 75.568H82.9371C83.4331 75.568 83.8811 75.696 84.2811 75.952C84.6811 76.192 85.0011 76.512 85.2411 76.912C85.4811 77.312 85.6011 77.76 85.6011 78.256V79.216C85.6011 79.52 85.4971 79.784 85.2891 80.008C85.0811 80.216 84.8251 80.32 84.5211 80.32H83.8491C83.5451 80.32 83.2891 80.216 83.0811 80.008C82.8731 79.784 82.7691 79.52 82.7691 79.216V78.76C82.7691 78.664 82.7291 78.584 82.6491 78.52C82.5851 78.456 82.5131 78.424 82.4331 78.424H80.1051C79.8811 78.424 79.7691 78.536 79.7691 78.76V79.6C79.7691 79.76 79.8331 79.856 79.9611 79.888L83.4411 80.992C84.0971 81.2 84.6171 81.576 85.0011 82.12C85.4011 82.664 85.6011 83.28 85.6011 83.968V85.312ZM96.2418 85.312C96.2418 86.064 95.9778 86.704 95.4498 87.232C94.9378 87.744 94.3138 88 93.5778 88H90.2418C89.5058 88 88.8738 87.744 88.3458 87.232C87.8178 86.704 87.5538 86.064 87.5538 85.312V84.328C87.5538 84.024 87.6578 83.768 87.8658 83.56C88.0898 83.336 88.3538 83.224 88.6578 83.224H89.3298C89.6338 83.224 89.8898 83.336 90.0978 83.56C90.3058 83.768 90.4098 84.024 90.4098 84.328V84.856C90.4098 85.064 90.5218 85.168 90.7458 85.168H93.0738C93.1538 85.168 93.2258 85.136 93.2898 85.072C93.3698 85.008 93.4098 84.936 93.4098 84.856V83.968C93.4098 83.84 93.3458 83.752 93.2178 83.704L89.7378 82.6C89.0978 82.376 88.5698 81.992 88.1538 81.448C87.7538 80.904 87.5538 80.288 87.5538 79.6V78.256C87.5538 77.76 87.6738 77.312 87.9138 76.912C88.1698 76.512 88.4978 76.192 88.8978 75.952C89.2978 75.696 89.7458 75.568 90.2418 75.568H93.5778C94.0738 75.568 94.5218 75.696 94.9218 75.952C95.3218 76.192 95.6418 76.512 95.8818 76.912C96.1218 77.312 96.2418 77.76 96.2418 78.256V79.216C96.2418 79.52 96.1378 79.784 95.9298 80.008C95.7218 80.216 95.4658 80.32 95.1618 80.32H94.4898C94.1858 80.32 93.9298 80.216 93.7218 80.008C93.5138 79.784 93.4098 79.52 93.4098 79.216V78.76C93.4098 78.664 93.3698 78.584 93.2898 78.52C93.2258 78.456 93.1538 78.424 93.0738 78.424H90.7458C90.5218 78.424 90.4098 78.536 90.4098 78.76V79.6C90.4098 79.76 90.4738 79.856 90.6018 79.888L94.0818 80.992C94.7378 81.2 95.2578 81.576 95.6418 82.12C96.0418 82.664 96.2418 83.28 96.2418 83.968V85.312ZM106.882 85.312C106.882 86.064 106.618 86.704 106.09 87.232C105.578 87.744 104.954 88 104.218 88H100.882C100.146 88 99.5144 87.744 98.9864 87.232C98.4584 86.704 98.1944 86.064 98.1944 85.312V82.696C98.1944 82.2 98.3144 81.76 98.5544 81.376C98.8104 80.976 99.1384 80.656 99.5384 80.416C99.9384 80.176 100.386 80.056 100.882 80.056H103.714C103.794 80.056 103.866 80.024 103.93 79.96C104.01 79.896 104.05 79.816 104.05 79.72V78.76C104.05 78.664 104.01 78.584 103.93 78.52C103.866 78.456 103.794 78.424 103.714 78.424H100.882C100.578 78.424 100.314 78.32 100.09 78.112C99.8824 77.904 99.7784 77.648 99.7784 77.344V76.696C99.7784 76.376 99.8824 76.112 100.09 75.904C100.314 75.68 100.578 75.568 100.882 75.568H104.218C104.714 75.568 105.162 75.688 105.562 75.928C105.962 76.168 106.282 76.496 106.522 76.912C106.762 77.312 106.882 77.76 106.882 78.256V85.312ZM104.05 84.856V83.2C104.05 83.12 104.01 83.048 103.93 82.984C103.866 82.92 103.794 82.888 103.714 82.888H101.386C101.306 82.888 101.226 82.92 101.146 82.984C101.082 83.048 101.05 83.12 101.05 83.2V84.856C101.05 84.936 101.082 85.008 101.146 85.072C101.226 85.136 101.306 85.168 101.386 85.168H103.714C103.794 85.168 103.866 85.136 103.93 85.072C104.01 85.008 104.05 84.936 104.05 84.856ZM117.523 89.152C117.523 89.632 117.403 90.072 117.163 90.472C116.923 90.888 116.603 91.216 116.203 91.456C115.803 91.712 115.355 91.84 114.859 91.84H111.523C111.219 91.84 110.955 91.728 110.731 91.504C110.523 91.296 110.419 91.04 110.419 90.736V90.064C110.419 89.76 110.523 89.504 110.731 89.296C110.955 89.088 111.219 88.984 111.523 88.984H114.355C114.435 88.984 114.507 88.952 114.571 88.888C114.651 88.824 114.691 88.752 114.691 88.672V88.312C114.691 88.232 114.651 88.16 114.571 88.096C114.507 88.032 114.435 88 114.355 88H111.523C110.787 88 110.155 87.744 109.627 87.232C109.099 86.704 108.835 86.064 108.835 85.312V78.256C108.835 77.76 108.955 77.312 109.195 76.912C109.451 76.496 109.779 76.168 110.179 75.928C110.579 75.688 111.027 75.568 111.523 75.568H114.859C115.355 75.568 115.803 75.688 116.203 75.928C116.603 76.168 116.923 76.496 117.163 76.912C117.403 77.312 117.523 77.76 117.523 78.256V89.152ZM114.691 84.856V78.76C114.691 78.664 114.651 78.584 114.571 78.52C114.507 78.456 114.435 78.424 114.355 78.424H112.027C111.947 78.424 111.867 78.456 111.787 78.52C111.723 78.584 111.691 78.664 111.691 78.76V84.856C111.691 84.936 111.723 85.008 111.787 85.072C111.867 85.136 111.947 85.168 112.027 85.168H114.355C114.435 85.168 114.507 85.136 114.571 85.072C114.651 85.008 114.691 84.936 114.691 84.856ZM128.164 80.872C128.164 81.352 128.044 81.8 127.804 82.216C127.564 82.616 127.244 82.944 126.844 83.2C126.444 83.44 125.996 83.56 125.5 83.56H122.668C122.588 83.56 122.508 83.592 122.428 83.656C122.364 83.704 122.332 83.768 122.332 83.848V84.856C122.332 84.936 122.364 85.008 122.428 85.072C122.508 85.136 122.588 85.168 122.668 85.168H125.5C125.804 85.168 126.06 85.272 126.268 85.48C126.492 85.688 126.604 85.952 126.604 86.272V86.896C126.604 87.2 126.492 87.464 126.268 87.688C126.06 87.896 125.804 88 125.5 88H122.164C121.428 88 120.796 87.744 120.268 87.232C119.74 86.704 119.476 86.064 119.476 85.312V78.256C119.476 77.76 119.596 77.312 119.836 76.912C120.092 76.512 120.42 76.192 120.82 75.952C121.22 75.696 121.668 75.568 122.164 75.568H125.5C125.996 75.568 126.444 75.696 126.844 75.952C127.244 76.192 127.564 76.512 127.804 76.912C128.044 77.312 128.164 77.76 128.164 78.256V80.872ZM125.332 80.392V78.76C125.332 78.664 125.292 78.584 125.212 78.52C125.148 78.456 125.076 78.424 124.996 78.424H122.668C122.588 78.424 122.508 78.456 122.428 78.52C122.364 78.584 122.332 78.664 122.332 78.76V80.392C122.332 80.456 122.364 80.52 122.428 80.584C122.508 80.648 122.588 80.68 122.668 80.68H124.996C125.076 80.68 125.148 80.648 125.212 80.584C125.292 80.52 125.332 80.456 125.332 80.392ZM148.056 86.56C148.152 86.928 148.096 87.264 147.888 87.568C147.68 87.856 147.384 88 147 88H146.304C146.08 88 145.864 87.928 145.656 87.784C145.464 87.64 145.328 87.464 145.248 87.256L144.336 84.496C144.272 84.288 144.136 84.184 143.928 84.184H139.824C139.616 84.184 139.48 84.288 139.416 84.496L138.504 87.256C138.424 87.464 138.288 87.64 138.096 87.784C137.904 87.928 137.688 88 137.448 88H136.752C136.368 88 136.072 87.856 135.864 87.568C135.64 87.248 135.592 86.912 135.72 86.56L140.376 72.52C140.456 72.296 140.584 72.12 140.76 71.992C140.952 71.848 141.16 71.776 141.384 71.776H142.368C142.592 71.776 142.8 71.848 142.992 71.992C143.184 72.12 143.312 72.296 143.376 72.52L148.056 86.56ZM143.208 81.04L142.008 77.368C141.928 77.256 141.84 77.256 141.743 77.368L140.544 81.04C140.512 81.12 140.52 81.192 140.568 81.256C140.616 81.32 140.68 81.352 140.76 81.352H142.992C143.072 81.352 143.136 81.32 143.184 81.256C143.232 81.192 143.24 81.12 143.208 81.04ZM158.703 85.312C158.703 86.064 158.439 86.704 157.911 87.232C157.399 87.744 156.775 88 156.039 88H153.207C153.127 88 153.047 88.032 152.967 88.096C152.903 88.16 152.871 88.232 152.871 88.312V90.736C152.871 91.04 152.767 91.296 152.559 91.504C152.351 91.728 152.095 91.84 151.791 91.84H151.119C150.815 91.84 150.551 91.728 150.327 91.504C150.119 91.296 150.015 91.04 150.015 90.736V78.256C150.015 77.76 150.135 77.312 150.375 76.912C150.631 76.496 150.959 76.168 151.359 75.928C151.759 75.688 152.207 75.568 152.703 75.568H156.039C156.535 75.568 156.983 75.688 157.383 75.928C157.783 76.168 158.103 76.496 158.343 76.912C158.583 77.312 158.703 77.76 158.703 78.256V85.312ZM155.871 84.856V78.76C155.871 78.664 155.831 78.584 155.751 78.52C155.687 78.456 155.615 78.424 155.535 78.424H153.207C153.127 78.424 153.047 78.456 152.967 78.52C152.903 78.584 152.871 78.664 152.871 78.76V84.856C152.871 84.936 152.903 85.008 152.967 85.072C153.047 85.136 153.127 85.168 153.207 85.168H155.535C155.615 85.168 155.687 85.136 155.751 85.072C155.831 85.008 155.871 84.936 155.871 84.856ZM169.343 85.312C169.343 86.064 169.079 86.704 168.551 87.232C168.039 87.744 167.415 88 166.679 88H163.847C163.767 88 163.687 88.032 163.607 88.096C163.543 88.16 163.511 88.232 163.511 88.312V90.736C163.511 91.04 163.407 91.296 163.199 91.504C162.991 91.728 162.735 91.84 162.431 91.84H161.759C161.455 91.84 161.191 91.728 160.967 91.504C160.759 91.296 160.655 91.04 160.655 90.736V78.256C160.655 77.76 160.775 77.312 161.015 76.912C161.271 76.496 161.599 76.168 161.999 75.928C162.399 75.688 162.847 75.568 163.343 75.568H166.679C167.175 75.568 167.623 75.688 168.023 75.928C168.423 76.168 168.743 76.496 168.983 76.912C169.223 77.312 169.343 77.76 169.343 78.256V85.312ZM166.511 84.856V78.76C166.511 78.664 166.471 78.584 166.391 78.52C166.327 78.456 166.255 78.424 166.175 78.424H163.847C163.767 78.424 163.687 78.456 163.607 78.52C163.543 78.584 163.511 78.664 163.511 78.76V84.856C163.511 84.936 163.543 85.008 163.607 85.072C163.687 85.136 163.767 85.168 163.847 85.168H166.175C166.255 85.168 166.327 85.136 166.391 85.072C166.471 85.008 166.511 84.936 166.511 84.856Z" fill="#171717"/>
</svg>
